<svg xmlns="http://www.w3.org/2000/svg" xmlns:xlink="http://www.w3.org/1999/xlink" xmlns:xodm="http://www.corel.com/coreldraw/odm/2003" width="150mm" height="150mm" version="1.1" xml:space="preserve" style="shape-rendering:geometricPrecision;text-rendering:geometricPrecision;image-rendering:optimizeQuality;fill-rule:evenodd;clip-rule:evenodd" viewBox="0 0 15000 15000"><defs><style type="text/css">.fil3{fill:#fefefe}.fil0,.fil3{fill-rule:nonzero}.fil1{fill:#e5e5e5}.fil1,.fil2{fill-rule:nonzero}.fil0{fill:#01a79d}.fil2{fill:#0c958b}</style></defs><g id="Layer_x0020_1"><metadata id="CorelCorpID_0Corel-Layer"/><path d="M14998.53 7504.47c0,4140.34 -3358.02,7497 -7500.52,7497 -4141.45,0 -7499.48,-3356.66 -7499.48,-7497 0,-4140.55 3358.03,-7496.9 7499.48,-7496.9 4142.5,0 7500.52,3356.35 7500.52,7496.9z" class="fil0"/><path d="M3069.22 1454.47c1242.34,-913.36 2777.17,-1453 4437.06,-1453 1650.59,0 3176.12,532.93 4415.36,1435.74 -6.21,-0.31 -11.37,-0.73 -17.57,-0.73 -1237.17,-898.78 -2759.6,-1428.91 -4406.06,-1428.91 -1656.78,0 -3188.51,537.16 -4428.79,1446.9z" class="fil1"/><path d="M831.58 10918.47c-527.11,-1025.55 -824.78,-2188.01 -824.78,-3419.99 0,-2480.62 1205.13,-4679.37 3062.42,-6044.01 1240.28,-909.74 2772.01,-1446.9 4428.79,-1446.9 1646.46,0 3168.89,530.13 4406.06,1428.91 -238.75,-9.91 -472.34,-15.08 -700.76,-15.08 -10033.76,0 -10369.66,9427.02 -10371.73,9497.07z" class="fil2"/><g id="_1303975546688"><path d="M3791 4605.73c-486.35,0 -882.14,395.78 -882.14,882.14l0 4027.32c0,486.34 395.79,882.03 882.14,882.03l7415.06 0c486.56,0 882.03,-395.69 882.03,-882.03l0 -4027.32c0,-486.36 -395.47,-882.14 -882.03,-882.14l-7415.06 0zm7415.06 6120.85l-7415.06 0c-668.1,0 -1211.5,-543.4 -1211.5,-1211.39l0 -4027.32c0,-668.1 543.4,-1211.5 1211.5,-1211.5l7415.06 0c668.09,0 1211.5,543.4 1211.5,1211.5l0 4027.32c0,667.99 -543.41,1211.39 -1211.5,1211.39z" class="fil3"/><polygon points="2837.14 6450.89 12160.17 6450.89 12160.17 5361.71 2837.14 5361.71" class="fil3"/><polygon points="3707.26 7561.02 7223.86 7561.02 7223.86 7243.58 3707.26 7243.58" class="fil3"/><polygon points="3707.26 8454.67 7223.86 8454.67 7223.86 8137.23 3707.26 8137.23" class="fil3"/><polygon points="3707.26 9371.94 7223.86 9371.94 7223.86 9054.55 3707.26 9054.55" class="fil3"/></g></g></svg>